<?xml version="1.0" encoding="iso-8859-1"?>
<!-- Generator: Adobe Illustrator 16.0.0, SVG Export Plug-In . SVG Version: 6.00 Build 0)  -->
<!DOCTYPE svg PUBLIC "-//W3C//DTD SVG 1.1//EN" "http://www.w3.org/Graphics/SVG/1.1/DTD/svg11.dtd">
<svg version="1.1" id="Capa_1" xmlns="http://www.w3.org/2000/svg" xmlns:xlink="http://www.w3.org/1999/xlink" x="0px" y="0px"
	 width="439.619px" height="439.619px" viewBox="0 0 439.619 439.619" style="enable-background:new 0 0 439.619 439.619;"
	 xml:space="preserve">
<g>
	<path d="M377.174,0H80.144C60.86,0,45.179,15.687,45.179,34.971v27.668c-9.9,0.955-17.697,9.23-17.697,19.379
		c0,10.151,7.796,18.418,17.697,19.375v22.23c-9.9,0.964-17.697,9.23-17.697,19.382c0,10.148,7.796,18.418,17.697,19.375v23.688
		c-9.9,0.958-17.697,9.227-17.697,19.376c0,10.151,7.796,18.418,17.697,19.378v22.236c-9.9,0.958-17.697,9.227-17.697,19.376
		c0,10.154,7.796,18.418,17.697,19.387v21.93c-9.9,0.963-17.697,9.232-17.697,19.381s7.796,18.418,17.697,19.375v58.145
		c0,19.287,15.69,34.969,34.965,34.969h297.03c19.281,0,34.963-15.688,34.963-34.969V34.965C412.137,15.687,396.456,0,377.174,0z
		 M45.173,336.512c-4.389-0.875-7.705-4.753-7.705-9.393s3.316-8.518,7.705-9.387V336.512z M45.173,275.819
		c-4.389-0.874-7.705-4.752-7.705-9.386c0-4.641,3.316-8.512,7.705-9.387V275.819z M45.173,214.829
		c-4.389-0.875-7.705-4.749-7.705-9.386c0-4.644,3.316-8.518,7.705-9.387V214.829z M45.173,152.385
		c-4.389-0.872-7.705-4.743-7.705-9.38c0-4.643,3.316-8.518,7.705-9.39V152.385z M45.173,91.401
		c-4.389-0.878-7.705-4.747-7.705-9.389c0-4.643,3.316-8.515,7.705-9.387V91.401z M392.159,404.65
		c0,8.258-6.727,14.984-14.984,14.984H80.144c-8.26,0-14.984-6.727-14.984-14.984v-57.961h14.81
		c1.726,6.674,7.728,11.621,14.951,11.621c8.556,0,15.492-6.934,15.492-15.486c0-8.559-6.937-15.498-15.492-15.498
		c-6.381,0-11.851,3.859-14.224,9.368H65.16v-50.696h14.81c1.726,6.679,7.728,11.627,14.951,11.627
		c8.556,0,15.492-6.934,15.492-15.492c0-8.56-6.937-15.498-15.492-15.498c-6.381,0-11.851,3.854-14.224,9.362H65.16v-50.986h15.265
		c2.172,5.923,7.82,10.179,14.496,10.179c8.556,0,15.492-6.939,15.492-15.499s-6.937-15.495-15.492-15.495
		c-6.918,0-12.711,4.563-14.703,10.823H65.16v-52.452h14.877c1.797,6.567,7.746,11.423,14.883,11.423
		c8.556,0,15.492-6.937,15.492-15.495c0-8.559-6.937-15.495-15.492-15.495c-6.46,0-11.984,3.957-14.31,9.575H65.16v-51.001h14.446
		c0.89,7.708,7.368,13.716,15.315,13.716c8.556,0,15.492-6.937,15.492-15.495s-6.937-15.495-15.492-15.495
		c-5.533,0-10.353,2.917-13.092,7.282H65.16V34.965c0-8.26,6.724-14.987,14.984-14.987h297.03c8.258,0,14.984,6.727,14.984,14.987
		V404.65z M183.464,70.506h161.402v80.7H183.464V70.506z"/>
</g>
<g>
</g>
<g>
</g>
<g>
</g>
<g>
</g>
<g>
</g>
<g>
</g>
<g>
</g>
<g>
</g>
<g>
</g>
<g>
</g>
<g>
</g>
<g>
</g>
<g>
</g>
<g>
</g>
<g>
</g>
</svg>
